<svg width="543" height="211" viewBox="0 0 543 211" fill="none" xmlns="http://www.w3.org/2000/svg">
<path d="M47.9128 100.827V136.67C47.9128 155.816 43.5691 164.232 31.1079 164.232C21.4837 164.232 16.7462 157.842 14.5743 152.96V190H1V74.6377H14.5743V84.5367C16.7462 79.6552 21.4837 73.2779 31.1079 73.2779C43.5691 73.2779 47.9128 81.6948 47.9128 100.827ZM34.3385 98.8006C34.3385 90.2477 31.8952 85.4886 25.1216 85.4886C17.6693 85.4886 14.5472 91.6075 14.5472 99.4805V138.03C14.5472 145.903 17.6693 152.008 25.1216 152.008C31.9087 152.008 34.3385 147.263 34.3385 138.71V98.8006ZM100.188 96.8698V100.949H86.6132V94.8166C86.6132 87.0795 85.5273 82.1843 79.2831 82.1843C72.4959 82.1843 68.1793 90.7372 68.1793 98.5015V159.596H54.605V71.3606H68.1793V82.2387C70.6227 76.7997 75.6316 70.0009 85.5273 70.0009C97.7713 70.0009 100.215 79.0977 100.215 96.8698H100.188ZM104.925 94.5038C104.925 72.6524 111.97 62.8757 128.368 62.8757C144.766 62.8757 151.811 72.6524 151.811 94.5038V122.202C151.811 144.054 144.766 153.83 128.368 153.83C111.97 153.83 104.925 144.054 104.925 122.202V94.5038ZM118.499 124.242C118.499 138.22 121.893 141.62 128.395 141.62C134.897 141.62 138.291 138.22 138.291 124.242V92.4778C138.291 78.4858 134.761 75.1 128.395 75.1C122.029 75.1 118.499 78.4858 118.499 92.4778V124.242ZM191.95 59.1499H205.524V144.937C205.524 164.763 201.859 174.539 181.403 174.539H161.991V162.302H179.339C189.235 162.302 191.95 156.863 191.95 144.924V137.459C189.778 142.34 185.027 148.731 175.416 148.731C162.942 148.731 158.611 140.314 158.611 121.169V85.2982C158.611 66.1663 162.942 57.7494 175.416 57.7494C185.027 57.7494 189.778 64.1267 191.95 69.0082V59.1499ZM191.95 122.542V83.9384C191.95 76.0654 188.828 69.9465 181.376 69.9465C174.588 69.9465 172.159 74.7056 172.159 83.2586V123.168C172.159 131.721 174.602 136.466 181.376 136.466C188.828 136.521 191.95 130.415 191.95 122.542ZM257.799 80.2127V84.292H244.225V78.1866C244.225 70.4496 243.139 65.5545 236.908 65.5545C230.121 65.5545 225.791 74.1074 225.791 81.8716V142.966H212.216V54.6899H225.791V65.568C228.234 60.129 233.243 53.3302 243.139 53.3302C255.356 53.3302 257.799 62.427 257.799 80.2127ZM309.381 77.7107V93.5928H276.084V107.449C276.084 121.427 279.749 124.827 286.251 124.827C292.753 124.827 295.875 121.427 295.875 107.449V101.058H309.449V105.409C309.449 127.261 302.662 137.037 286.278 137.037C269.894 137.037 262.564 127.261 262.564 105.409V77.7107C262.564 55.8593 269.88 46.0826 286.278 46.0826C302.676 46.0826 309.422 55.8593 309.422 77.7107H309.381ZM295.807 75.6711C295.807 61.6927 292.549 58.3069 286.183 58.3069C279.817 58.3069 276.016 61.6927 276.016 75.6711V84.088H295.807V75.6711ZM362.321 108.129C362.321 119.537 358.249 131.34 339.829 131.34C321.408 131.34 315.395 122.243 315.395 100.392H328.969C328.969 115.05 331.956 119.129 339.829 119.129C346.331 119.129 348.774 115.05 348.774 108.129C348.774 100.392 344.973 96.7202 333.055 87.6234C325.331 81.79 316.114 76.2286 316.114 61.7879C316.114 51.4673 321.395 40.3308 338.471 40.3308C355.548 40.3308 361.643 51.0594 361.643 69.253H348.068C348.068 55.261 344.403 52.5551 338.444 52.5551C333.299 52.5551 329.634 55.9409 329.634 61.7879C329.634 69.7969 334.779 72.0949 344.675 79.832C354.57 87.569 362.403 94.1503 362.403 108.129H362.321ZM413.904 102.622C413.904 114.03 409.831 125.833 391.411 125.833C372.991 125.833 366.977 116.75 366.977 94.8845H380.552C380.552 109.543 383.538 113.622 391.411 113.622C397.913 113.622 400.357 109.543 400.357 102.622C400.357 94.8845 396.556 91.2268 384.637 82.13C376.914 76.2966 367.697 70.7216 367.697 56.2945C367.697 45.9739 372.977 34.851 390.054 34.851C407.13 34.851 413.225 45.5659 413.225 63.7596H399.651C399.651 49.7812 395.986 47.0617 390.026 47.0617C384.882 47.0617 381.217 50.4611 381.217 56.2945C381.217 64.3035 386.375 66.6151 396.271 74.3521C406.166 82.0892 414.026 88.6432 414.026 102.622H413.904ZM419.333 17.8675C419.493 15.9942 420.349 14.249 421.731 12.9773C423.114 11.7056 424.922 11 426.799 11C428.676 11 430.485 11.7056 431.867 12.9773C433.25 14.249 434.105 15.9942 434.265 17.8675C434.105 19.7409 433.25 21.486 431.867 22.7577C430.485 24.0294 428.676 24.7351 426.799 24.7351C424.922 24.7351 423.114 24.0294 421.731 22.7577C420.349 21.486 419.493 19.7409 419.333 17.8675ZM420.012 121.033V32.7978H433.586V121.033H420.012ZM440.374 58.8644C440.374 37.013 447.432 27.2363 463.83 27.2363C480.228 27.2363 487.273 37.013 487.273 58.8644V86.5628C487.273 108.414 480.228 118.191 463.83 118.191C447.432 118.191 440.374 108.414 440.374 86.5628V58.8644ZM453.948 88.5889C453.948 102.581 457.328 105.967 463.844 105.967C470.359 105.967 473.726 102.581 473.726 88.5889V56.8248C473.726 42.8464 470.21 39.447 463.844 39.447C457.477 39.447 453.948 42.8464 453.948 56.8248V88.5889ZM540.946 47.6735V109.774H527.371V45.6339C527.371 37.081 524.942 32.3354 518.154 32.3354C510.702 32.3354 507.594 38.4407 507.594 46.3138V109.774H494.019V21.4709H507.594V31.3836C509.752 26.502 514.503 20.1111 524.127 20.1111C536.656 20.1111 541 28.5281 541 47.6735H540.946Z" fill="#2E9E5D"/>
<path d="M254.931 203.02C253.331 203.02 251.898 202.653 250.631 201.92C249.365 201.153 248.481 200.42 247.981 199.72H247.731L246.931 202.52H244.031V171.02H247.931V182.62H248.131C248.565 181.953 249.415 181.253 250.681 180.52C251.948 179.753 253.365 179.37 254.931 179.37C256.831 179.37 258.581 179.886 260.181 180.92C261.781 181.92 263.048 183.32 263.981 185.12C264.915 186.92 265.381 188.936 265.381 191.17C265.381 193.436 264.915 195.47 263.981 197.27C263.048 199.07 261.781 200.486 260.181 201.52C258.581 202.52 256.831 203.02 254.931 203.02ZM254.681 199.37C255.915 199.37 257.048 199.036 258.081 198.37C259.148 197.67 259.981 196.703 260.581 195.47C261.215 194.203 261.531 192.77 261.531 191.17C261.531 189.603 261.215 188.203 260.581 186.97C259.981 185.703 259.148 184.736 258.081 184.07C257.048 183.37 255.915 183.02 254.681 183.02C253.481 183.02 252.365 183.37 251.331 184.07C250.298 184.736 249.465 185.703 248.831 186.97C248.231 188.203 247.931 189.603 247.931 191.17C247.931 192.77 248.231 194.203 248.831 195.47C249.465 196.703 250.281 197.67 251.281 198.37C252.315 199.036 253.448 199.37 254.681 199.37ZM284.26 179.87H288.31L278.61 204.32C277.61 206.786 276.594 208.486 275.56 209.42C274.527 210.386 273.344 210.87 272.01 210.87C271.444 210.87 270.744 210.72 269.91 210.42V206.92C270.41 207.12 270.91 207.22 271.41 207.22C272.177 207.22 272.844 206.986 273.41 206.52C273.977 206.086 274.477 205.32 274.91 204.22L275.81 201.97L266.81 179.87H271.01L277.76 197.22L284.26 179.87ZM310.704 203.02C308.738 203.02 306.904 202.503 305.204 201.47C303.538 200.436 302.204 199.02 301.204 197.22C300.238 195.386 299.754 193.37 299.754 191.17C299.754 188.97 300.238 186.97 301.204 185.17C302.204 183.37 303.538 181.953 305.204 180.92C306.904 179.886 308.738 179.37 310.704 179.37C312.438 179.37 314.021 179.786 315.454 180.62C316.888 181.42 318.071 182.486 319.004 183.82C319.938 185.12 320.554 186.536 320.854 188.07H316.954C316.554 186.603 315.821 185.403 314.754 184.47C313.688 183.503 312.338 183.02 310.704 183.02C309.438 183.02 308.254 183.37 307.154 184.07C306.088 184.736 305.238 185.703 304.604 186.97C303.971 188.203 303.654 189.603 303.654 191.17C303.654 192.77 303.971 194.203 304.604 195.47C305.238 196.703 306.088 197.67 307.154 198.37C308.254 199.036 309.438 199.37 310.704 199.37C312.338 199.37 313.688 198.903 314.754 197.97C315.821 197.003 316.554 195.803 316.954 194.37H320.854C320.554 195.87 319.938 197.286 319.004 198.62C318.071 199.92 316.888 200.986 315.454 201.82C314.021 202.62 312.438 203.02 310.704 203.02ZM333.524 179.37C336.091 179.37 338.174 180.186 339.774 181.82C341.374 183.453 342.174 185.553 342.174 188.12V202.52H339.324L338.474 199.72H338.224C337.624 200.553 336.741 201.32 335.574 202.02C334.441 202.686 333.058 203.02 331.424 203.02C329.958 203.02 328.641 202.72 327.474 202.12C326.341 201.486 325.458 200.653 324.824 199.62C324.191 198.586 323.874 197.453 323.874 196.22C323.874 194.82 324.291 193.57 325.124 192.47C325.991 191.37 327.191 190.52 328.724 189.92C330.291 189.32 332.074 189.02 334.074 189.02H338.324V187.97C338.324 186.47 337.874 185.27 336.974 184.37C336.074 183.436 334.908 182.97 333.474 182.97C332.141 182.97 331.074 183.32 330.274 184.02C329.474 184.686 328.974 185.553 328.774 186.62H324.924C325.058 185.353 325.491 184.17 326.224 183.07C326.991 181.936 327.991 181.036 329.224 180.37C330.491 179.703 331.924 179.37 333.524 179.37ZM332.124 199.57C333.991 199.57 335.491 199.02 336.624 197.92C337.758 196.82 338.324 195.453 338.324 193.82V192.12H334.324C332.224 192.12 330.608 192.47 329.474 193.17C328.341 193.836 327.774 194.803 327.774 196.07C327.774 197.136 328.141 197.986 328.874 198.62C329.641 199.253 330.724 199.57 332.124 199.57ZM348.078 202.52V179.87H350.978L351.828 182.67H352.028C352.562 181.903 353.345 181.17 354.378 180.47C355.445 179.736 356.612 179.37 357.878 179.37C358.612 179.37 359.212 179.453 359.678 179.62V183.47C359.145 183.336 358.545 183.27 357.878 183.27C356.112 183.27 354.678 183.853 353.578 185.02C352.512 186.186 351.978 187.786 351.978 189.82V202.52H348.078ZM382.188 190.62C382.188 191.453 382.122 192.203 381.988 192.87H364.788C365.088 194.903 365.872 196.52 367.138 197.72C368.405 198.886 369.955 199.47 371.788 199.47C374.288 199.47 376.172 198.47 377.438 196.47H381.388C380.688 198.27 379.455 199.82 377.688 201.12C375.955 202.386 373.988 203.02 371.788 203.02C369.755 203.02 367.905 202.52 366.238 201.52C364.572 200.486 363.255 199.07 362.288 197.27C361.322 195.47 360.838 193.436 360.838 191.17C360.838 188.97 361.322 186.97 362.288 185.17C363.288 183.37 364.622 181.953 366.288 180.92C367.988 179.886 369.822 179.37 371.788 179.37C373.722 179.37 375.472 179.87 377.038 180.87C378.638 181.836 379.888 183.186 380.788 184.92C381.722 186.62 382.188 188.52 382.188 190.62ZM371.788 182.97C370.022 182.97 368.472 183.586 367.138 184.82C365.838 186.053 365.055 187.686 364.788 189.72H378.388C378.155 187.72 377.422 186.103 376.188 184.87C374.988 183.603 373.522 182.97 371.788 182.97ZM406.847 190.62C406.847 191.453 406.78 192.203 406.647 192.87H389.447C389.747 194.903 390.53 196.52 391.797 197.72C393.063 198.886 394.613 199.47 396.447 199.47C398.947 199.47 400.83 198.47 402.097 196.47H406.047C405.347 198.27 404.113 199.82 402.347 201.12C400.613 202.386 398.647 203.02 396.447 203.02C394.413 203.02 392.563 202.52 390.897 201.52C389.23 200.486 387.913 199.07 386.947 197.27C385.98 195.47 385.497 193.436 385.497 191.17C385.497 188.97 385.98 186.97 386.947 185.17C387.947 183.37 389.28 181.953 390.947 180.92C392.647 179.886 394.48 179.37 396.447 179.37C398.38 179.37 400.13 179.87 401.697 180.87C403.297 181.836 404.547 183.186 405.447 184.92C406.38 186.62 406.847 188.52 406.847 190.62ZM396.447 182.97C394.68 182.97 393.13 183.586 391.797 184.82C390.497 186.053 389.713 187.686 389.447 189.72H403.047C402.813 187.72 402.08 186.103 400.847 184.87C399.647 183.603 398.18 182.97 396.447 182.97ZM411.555 202.52V179.87H414.455L415.305 182.67H415.505C416.038 181.903 416.822 181.17 417.855 180.47C418.922 179.736 420.088 179.37 421.355 179.37C422.088 179.37 422.688 179.453 423.155 179.62V183.47C422.622 183.336 422.022 183.27 421.355 183.27C419.588 183.27 418.155 183.853 417.055 185.02C415.988 186.186 415.455 187.786 415.455 189.82V202.52H411.555ZM449.294 179.37C450.761 179.37 452.077 179.753 453.244 180.52C454.411 181.253 455.327 182.336 455.994 183.77C456.661 185.17 456.994 186.836 456.994 188.77V202.52H453.044V188.82C453.044 187.02 452.611 185.603 451.744 184.57C450.911 183.536 449.811 183.02 448.444 183.02C447.111 183.02 445.994 183.553 445.094 184.62C444.194 185.686 443.744 187.086 443.744 188.82V202.52H439.844V188.82C439.844 187.02 439.411 185.603 438.544 184.57C437.711 183.536 436.611 183.02 435.244 183.02C433.877 183.02 432.744 183.553 431.844 184.62C430.944 185.653 430.494 187.053 430.494 188.82V202.52H426.594V179.87H429.494L430.344 182.67H430.544C431.044 181.87 431.761 181.12 432.694 180.42C433.661 179.72 434.794 179.37 436.094 179.37C437.727 179.37 439.077 179.786 440.144 180.62C441.244 181.453 442.044 182.386 442.544 183.42C443.177 182.353 444.044 181.42 445.144 180.62C446.277 179.786 447.661 179.37 449.294 179.37ZM466.724 202.52H462.824V179.87H466.724V202.52ZM464.824 176.47C464.124 176.47 463.541 176.236 463.074 175.77C462.608 175.303 462.374 174.72 462.374 174.02C462.374 173.32 462.608 172.753 463.074 172.32C463.541 171.853 464.124 171.62 464.824 171.62C465.524 171.62 466.108 171.853 466.574 172.32C467.041 172.753 467.274 173.32 467.274 174.02C467.274 174.753 467.041 175.353 466.574 175.82C466.108 176.253 465.524 176.47 464.824 176.47ZM472.834 202.52V179.87H475.734L476.584 182.67H476.784C477.384 181.836 478.251 181.086 479.384 180.42C480.518 179.72 481.818 179.37 483.284 179.37C485.018 179.37 486.568 179.786 487.934 180.62C489.334 181.42 490.418 182.586 491.184 184.12C491.951 185.62 492.334 187.353 492.334 189.32V202.52H488.484V189.47C488.484 187.536 487.934 185.986 486.834 184.82C485.768 183.62 484.384 183.02 482.684 183.02C480.918 183.02 479.484 183.603 478.384 184.77C477.284 185.936 476.734 187.503 476.734 189.47V202.52H472.834ZM507.275 203.02C505.408 203.02 503.675 202.52 502.075 201.52C500.475 200.486 499.191 199.07 498.225 197.27C497.291 195.47 496.825 193.436 496.825 191.17C496.825 188.936 497.291 186.92 498.225 185.12C499.191 183.32 500.475 181.92 502.075 180.92C503.675 179.886 505.408 179.37 507.275 179.37C508.375 179.37 509.391 179.57 510.325 179.97C511.291 180.336 512.091 180.786 512.725 181.32C513.391 181.82 513.841 182.253 514.075 182.62H514.325V171.02H518.225V202.52H515.325L514.475 199.72H514.275C513.775 200.42 512.875 201.153 511.575 201.92C510.308 202.653 508.875 203.02 507.275 203.02ZM507.525 199.37C508.758 199.37 509.891 199.036 510.925 198.37C511.958 197.67 512.775 196.703 513.375 195.47C514.008 194.203 514.325 192.77 514.325 191.17C514.325 189.603 514.008 188.203 513.375 186.97C512.775 185.703 511.958 184.736 510.925 184.07C509.891 183.37 508.758 183.02 507.525 183.02C506.291 183.02 505.158 183.37 504.125 184.07C503.091 184.736 502.258 185.703 501.625 186.97C501.025 188.203 500.725 189.603 500.725 191.17C500.725 192.77 501.025 194.203 501.625 195.47C502.258 196.703 503.091 197.67 504.125 198.37C505.158 199.036 506.291 199.37 507.525 199.37ZM531.743 203.02C530.11 203.02 528.643 202.686 527.343 202.02C526.076 201.353 525.076 200.47 524.343 199.37C523.61 198.27 523.193 197.07 523.093 195.77H526.943C527.043 196.936 527.51 197.87 528.343 198.57C529.21 199.27 530.343 199.62 531.743 199.62C533.11 199.62 534.16 199.32 534.893 198.72C535.626 198.12 535.993 197.353 535.993 196.42C535.993 195.42 535.56 194.653 534.693 194.12C533.86 193.586 532.576 193.053 530.843 192.52C529.276 192.02 528.026 191.553 527.093 191.12C526.16 190.653 525.343 190.003 524.643 189.17C523.976 188.303 523.643 187.203 523.643 185.87C523.643 184.67 523.96 183.586 524.593 182.62C525.226 181.62 526.126 180.836 527.293 180.27C528.493 179.67 529.876 179.37 531.443 179.37C533.743 179.37 535.626 180.036 537.093 181.37C538.593 182.703 539.41 184.37 539.543 186.37H535.693C535.56 185.236 535.126 184.353 534.393 183.72C533.693 183.086 532.71 182.77 531.443 182.77C530.21 182.77 529.243 183.053 528.543 183.62C527.876 184.153 527.543 184.853 527.543 185.72C527.543 186.686 527.943 187.42 528.743 187.92C529.576 188.386 530.86 188.903 532.593 189.47C534.126 189.97 535.376 190.453 536.343 190.92C537.343 191.386 538.176 192.07 538.843 192.97C539.543 193.836 539.893 194.953 539.893 196.32C539.893 198.253 539.16 199.853 537.693 201.12C536.26 202.386 534.276 203.02 531.743 203.02Z" fill="#828BA2"/>
</svg>
